<svg width="300" height="36" viewBox="0 0 300 36" fill="none" xmlns="http://www.w3.org/2000/svg">
<path fill-rule="evenodd" clip-rule="evenodd" d="M13.1578 35.8343L13.1614 35.8324L13.1704 35.8261L13.1975 35.8052L13.304 35.7279C13.3943 35.6606 13.5261 35.5624 13.6922 35.4333C14.0244 35.1769 14.4956 34.7996 15.058 34.315C16.5343 33.044 17.9147 31.6643 19.1879 30.1872C22.174 26.7086 25.2757 21.7434 25.2757 16.0672C25.2757 12.6759 23.9451 9.42092 21.5764 7.02061C20.4056 5.83263 19.0132 4.8896 17.4791 4.24578C15.9451 3.60197 14.2997 3.27008 12.6379 3.26923C10.976 3.26996 9.33074 3.6017 7.79669 4.24536C6.26265 4.88902 4.87013 5.83189 3.69928 7.0197C1.32826 9.42549 -0.00159148 12.6783 1.42936e-06 16.0681C1.42936e-06 21.7434 3.10169 26.7086 6.08783 30.1872C7.36098 31.6643 8.74141 33.044 10.2177 34.315C10.781 34.7996 11.2513 35.1769 11.5835 35.4333C11.7464 35.5598 11.911 35.684 12.0773 35.8061L12.1062 35.8261L12.1143 35.8324L12.1179 35.8343C12.4293 36.0552 12.8464 36.0552 13.1578 35.8343ZM17.1514 15.9981C17.1514 17.2038 16.6758 18.3601 15.8294 19.2126C14.9829 20.0652 13.8349 20.5441 12.6379 20.5441C11.4408 20.5441 10.2928 20.0652 9.44631 19.2126C8.59986 18.3601 8.12433 17.2038 8.12433 15.9981C8.12433 14.7924 8.59986 13.6361 9.44631 12.7836C10.2928 11.931 11.4408 11.4521 12.6379 11.4521C13.8349 11.4521 14.9829 11.931 15.8294 12.7836C16.6758 13.6361 17.1514 14.7924 17.1514 15.9981Z" fill="white"/>
<path d="M50.8448 8.22055C52.6524 8.22055 54.263 8.62213 55.6766 9.42528C57.1134 10.2284 58.2374 11.3623 59.0485 12.8269C59.8596 14.2915 60.2651 15.9805 60.2651 17.8939C60.2651 19.8073 59.8596 21.5081 59.0485 22.9963C58.2374 24.4609 57.1134 25.5947 55.6766 26.3979C54.263 27.201 52.6524 27.6026 50.8448 27.6026C48.342 27.6026 46.3606 26.7522 44.9006 25.0514V34.2287H40.5554V8.43315H44.692V10.9135C45.4104 10.0158 46.2911 9.3426 47.3339 8.89378C48.3999 8.44496 49.5702 8.22055 50.8448 8.22055ZM50.3581 23.8112C51.9572 23.8112 53.2665 23.2679 54.2862 22.1813C55.329 21.0947 55.8504 19.6655 55.8504 17.8939C55.8504 16.1222 55.329 14.693 54.2862 13.6064C53.2665 12.5198 51.9572 11.9765 50.3581 11.9765C49.3153 11.9765 48.3767 12.2245 47.5425 12.7206C46.7082 13.193 46.0477 13.8781 45.5611 14.7757C45.0744 15.6734 44.8311 16.7128 44.8311 17.8939C44.8311 19.075 45.0744 20.1144 45.5611 21.012C46.0477 21.9096 46.7082 22.6065 47.5425 23.1026C48.3767 23.575 49.3153 23.8112 50.3581 23.8112Z" fill="white"/>
<path d="M81.8362 18.0002C81.8362 18.3073 81.8131 18.7443 81.7667 19.3112H67.2017C67.4566 20.7049 68.1171 21.8152 69.1831 22.6419C70.2723 23.4451 71.6164 23.8467 73.2154 23.8467C75.2547 23.8467 76.9349 23.1616 78.2558 21.7915L80.5848 24.5199C79.7506 25.5357 78.6961 26.3034 77.4215 26.8231C76.147 27.3428 74.7101 27.6026 73.1111 27.6026C71.0718 27.6026 69.2758 27.1892 67.7231 26.3624C66.1704 25.5357 64.9654 24.39 64.1079 22.9254C63.2736 21.4372 62.8565 19.76 62.8565 17.8939C62.8565 16.0513 63.2621 14.3978 64.0732 12.9332C64.9074 11.445 66.0546 10.2875 67.5145 9.46072C68.9745 8.63394 70.6199 8.22055 72.4507 8.22055C74.2582 8.22055 75.8689 8.63394 77.2825 9.46072C78.7193 10.2639 79.8317 11.4096 80.6196 12.8978C81.4307 14.3623 81.8362 16.0631 81.8362 18.0002ZM72.4507 11.7639C71.0602 11.7639 69.8783 12.1891 68.905 13.0395C67.9548 13.8663 67.3755 14.9765 67.1669 16.3702H77.6996C77.5142 15.0001 76.9465 13.8899 75.9963 13.0395C75.0462 12.1891 73.8643 11.7639 72.4507 11.7639Z" fill="white"/>
<path d="M90.1467 11.197C91.3981 9.21268 93.5996 8.22055 96.7513 8.22055V12.4371C96.3805 12.3663 96.0445 12.3308 95.7433 12.3308C94.0515 12.3308 92.7306 12.8387 91.7804 13.8545C90.8303 14.8466 90.3552 16.2876 90.3552 18.1773V27.3546H86.0101V8.43315H90.1467V11.197Z" fill="white"/>
<path d="M106.241 27.6026C104.735 27.6026 103.263 27.4018 101.826 27.0002C100.389 26.5987 99.2423 26.0908 98.3848 25.4766L100.053 22.1104C100.888 22.6774 101.884 23.138 103.043 23.4923C104.225 23.8231 105.383 23.9884 106.519 23.9884C109.115 23.9884 110.412 23.2916 110.412 21.8978C110.412 21.2364 110.076 20.7758 109.404 20.5159C108.755 20.2561 107.701 20.0081 106.241 19.7718C104.711 19.5356 103.46 19.264 102.487 18.9569C101.537 18.6498 100.702 18.1183 99.9839 17.3624C99.2886 16.5828 98.941 15.508 98.941 14.1379C98.941 12.3426 99.671 10.9135 101.131 9.85048C102.614 8.76386 104.607 8.22055 107.11 8.22055C108.385 8.22055 109.659 8.37409 110.934 8.68118C112.208 8.96465 113.251 9.35442 114.062 9.85048L112.394 13.2167C110.818 12.2718 109.045 11.7993 107.075 11.7993C105.801 11.7993 104.827 12.0001 104.155 12.4017C103.506 12.7796 103.182 13.2875 103.182 13.9253C103.182 14.634 103.53 15.1419 104.225 15.449C104.943 15.7324 106.044 16.0041 107.527 16.2639C109.01 16.5002 110.227 16.7718 111.177 17.0789C112.127 17.386 112.938 17.9057 113.61 18.638C114.306 19.3703 114.653 20.4096 114.653 21.7561C114.653 23.5278 113.9 24.9451 112.394 26.0081C110.887 27.0711 108.836 27.6026 106.241 27.6026Z" fill="white"/>
<path d="M126.738 27.6026C124.861 27.6026 123.169 27.1892 121.663 26.3624C120.156 25.5357 118.975 24.39 118.117 22.9254C117.283 21.4372 116.866 19.76 116.866 17.8939C116.866 16.0277 117.283 14.3623 118.117 12.8978C118.975 11.4332 120.156 10.2875 121.663 9.46072C123.169 8.63394 124.861 8.22055 126.738 8.22055C128.638 8.22055 130.342 8.63394 131.848 9.46072C133.354 10.2875 134.525 11.4332 135.359 12.8978C136.216 14.3623 136.645 16.0277 136.645 17.8939C136.645 19.76 136.216 21.4372 135.359 22.9254C134.525 24.39 133.354 25.5357 131.848 26.3624C130.342 27.1892 128.638 27.6026 126.738 27.6026ZM126.738 23.8112C128.337 23.8112 129.658 23.2679 130.701 22.1813C131.744 21.0947 132.265 19.6655 132.265 17.8939C132.265 16.1222 131.744 14.693 130.701 13.6064C129.658 12.5198 128.337 11.9765 126.738 11.9765C125.139 11.9765 123.818 12.5198 122.775 13.6064C121.755 14.693 121.246 16.1222 121.246 17.8939C121.246 19.6655 121.755 21.0947 122.775 22.1813C123.818 23.2679 125.139 23.8112 126.738 23.8112Z" fill="white"/>
<path d="M151.333 8.22055C153.673 8.22055 155.55 8.9174 156.964 10.3111C158.378 11.7048 159.085 13.7718 159.085 16.512V27.3546H154.739V17.0789C154.739 15.4253 154.357 14.1852 153.592 13.3584C152.827 12.508 151.738 12.0828 150.325 12.0828C148.726 12.0828 147.463 12.5789 146.536 13.571C145.609 14.5395 145.145 15.945 145.145 17.7876V27.3546H140.8V8.43315H144.937V10.8781C145.655 10.004 146.559 9.3426 147.648 8.89378C148.737 8.44496 149.965 8.22055 151.333 8.22055Z" fill="white"/>
<path d="M184.736 8.22055C187.077 8.22055 188.954 8.9174 190.368 10.3111C191.781 11.7048 192.488 13.7718 192.488 16.512V27.3546H188.143V17.0789C188.143 15.4253 187.761 14.1852 186.996 13.3584C186.231 12.508 185.142 12.0828 183.728 12.0828C182.129 12.0828 180.866 12.5789 179.939 13.571C179.012 14.5395 178.549 15.945 178.549 17.7876V27.3546H174.204V1.063H178.549V10.63C179.267 9.85049 180.148 9.25993 181.191 8.85835C182.257 8.43315 183.439 8.22055 184.736 8.22055Z" fill="white"/>
<path d="M205.092 8.22055C207.826 8.22055 209.912 8.89378 211.349 10.2403C212.809 11.5631 213.539 13.571 213.539 16.2639V27.3546H209.437V25.0514C208.904 25.8782 208.139 26.516 207.142 26.9648C206.169 27.39 204.987 27.6026 203.597 27.6026C202.206 27.6026 200.99 27.3664 199.947 26.8939C198.904 26.3979 198.093 25.7246 197.514 24.8742C196.957 24.0002 196.679 23.0199 196.679 21.9333C196.679 20.2325 197.293 18.8742 198.522 17.8584C199.773 16.8191 201.731 16.2994 204.396 16.2994H209.193V16.0159C209.193 14.693 208.799 13.6773 208.012 12.9686C207.247 12.26 206.1 11.9056 204.57 11.9056C203.527 11.9056 202.496 12.071 201.476 12.4017C200.48 12.7324 199.634 13.193 198.939 13.7836L197.235 10.5592C198.209 9.80324 199.379 9.22449 200.746 8.82292C202.114 8.42134 203.562 8.22055 205.092 8.22055ZM204.501 24.3782C205.59 24.3782 206.552 24.1301 207.386 23.6341C208.243 23.1144 208.846 22.3821 209.193 21.4372V19.2403H204.709C202.206 19.2403 200.955 20.0789 200.955 21.7561C200.955 22.5593 201.268 23.1971 201.893 23.6695C202.519 24.142 203.388 24.3782 204.501 24.3782Z" fill="white"/>
<path d="M229.404 8.22055C231.212 8.22055 232.823 8.62213 234.236 9.42528C235.673 10.2284 236.797 11.3623 237.608 12.8269C238.419 14.2915 238.825 15.9805 238.825 17.8939C238.825 19.8073 238.419 21.5081 237.608 22.9963C236.797 24.4609 235.673 25.5947 234.236 26.3979C232.823 27.201 231.212 27.6026 229.404 27.6026C228.13 27.6026 226.96 27.3782 225.894 26.9294C224.851 26.4806 223.97 25.8073 223.252 24.9097V27.3546H219.115V1.063H223.46V10.7363C224.202 9.90954 225.071 9.28355 226.067 8.85835C227.087 8.43315 228.199 8.22055 229.404 8.22055ZM228.918 23.8112C230.517 23.8112 231.826 23.2679 232.846 22.1813C233.889 21.0947 234.41 19.6655 234.41 17.8939C234.41 16.1222 233.889 14.693 232.846 13.6064C231.826 12.5198 230.517 11.9765 228.918 11.9765C227.875 11.9765 226.936 12.2245 226.102 12.7206C225.268 13.193 224.607 13.8781 224.121 14.7757C223.634 15.6734 223.391 16.7128 223.391 17.8939C223.391 19.075 223.634 20.1144 224.121 21.012C224.607 21.9096 225.268 22.6065 226.102 23.1026C226.936 23.575 227.875 23.8112 228.918 23.8112Z" fill="white"/>
<path d="M242.946 8.43315H247.291V27.3546H242.946V8.43315ZM245.136 5.31501C244.348 5.31501 243.687 5.06698 243.154 4.57091C242.621 4.05122 242.355 3.41342 242.355 2.6575C242.355 1.90159 242.621 1.2756 243.154 0.779533C243.687 0.259844 244.348 0 245.136 0C245.924 0 246.584 0.248033 247.117 0.7441C247.65 1.21655 247.917 1.81891 247.917 2.5512C247.917 3.33074 247.65 3.99216 247.117 4.53547C246.607 5.05516 245.947 5.31501 245.136 5.31501Z" fill="white"/>
<path d="M264.152 26.327C263.642 26.7522 263.017 27.0711 262.275 27.2837C261.557 27.4963 260.792 27.6026 259.981 27.6026C257.942 27.6026 256.366 27.0593 255.253 25.9727C254.141 24.8861 253.585 23.3034 253.585 21.2246V12.1182H250.526V8.57488H253.585V4.25201H257.93V8.57488H262.901V12.1182H257.93V21.1183C257.93 22.0396 258.15 22.7482 258.59 23.2443C259.031 23.7168 259.668 23.953 260.502 23.953C261.476 23.953 262.287 23.6931 262.936 23.1734L264.152 26.327Z" fill="white"/>
<path d="M274.818 8.22055C277.553 8.22055 279.638 8.89378 281.075 10.2403C282.535 11.5631 283.265 13.571 283.265 16.2639V27.3546H279.163V25.0514C278.63 25.8782 277.865 26.516 276.869 26.9648C275.896 27.39 274.714 27.6026 273.323 27.6026C271.933 27.6026 270.716 27.3664 269.673 26.8939C268.631 26.3979 267.819 25.7246 267.24 24.8742C266.684 24.0002 266.406 23.0199 266.406 21.9333C266.406 20.2325 267.02 18.8742 268.248 17.8584C269.5 16.8191 271.458 16.2994 274.123 16.2994H278.92V16.0159C278.92 14.693 278.526 13.6773 277.738 12.9686C276.973 12.26 275.826 11.9056 274.297 11.9056C273.254 11.9056 272.223 12.071 271.203 12.4017C270.206 12.7324 269.361 13.193 268.665 13.7836L266.962 10.5592C267.935 9.80324 269.106 9.22449 270.473 8.82292C271.84 8.42134 273.289 8.22055 274.818 8.22055ZM274.227 24.3782C275.316 24.3782 276.278 24.1301 277.112 23.6341C277.97 23.1144 278.572 22.3821 278.92 21.4372V19.2403H274.436C271.933 19.2403 270.681 20.0789 270.681 21.7561C270.681 22.5593 270.994 23.1971 271.62 23.6695C272.246 24.142 273.115 24.3782 274.227 24.3782Z" fill="white"/>
<path d="M300 26.327C299.49 26.7522 298.864 27.0711 298.123 27.2837C297.404 27.4963 296.64 27.6026 295.829 27.6026C293.789 27.6026 292.213 27.0593 291.101 25.9727C289.989 24.8861 289.433 23.3034 289.433 21.2246V12.1182H286.374V8.57488H289.433V4.25201H293.778V8.57488H298.749V12.1182H293.778V21.1183C293.778 22.0396 293.998 22.7482 294.438 23.2443C294.878 23.7168 295.516 23.953 296.35 23.953C297.323 23.953 298.134 23.6931 298.783 23.1734L300 26.327Z" fill="white"/>
</svg>
